<svg width="86" height="61" viewBox="0 0 86 61" fill="none" xmlns="http://www.w3.org/2000/svg">
<g clip-path="url(#clip0_28_119)">
<path d="M7.63078 57.6813C8.54529 57.2226 9.15886 56.5218 9.45958 55.6045C9.68517 54.7507 9.77266 53.8207 9.23398 52.8269C8.62019 51.7567 6.5784 51.5911 4.91221 51.6675C3.17114 51.6675 1.88079 51.897 1.88079 51.897C1.88079 51.897 1.58008 60.0642 1.65543 60.3065C1.80567 60.5231 2.11898 60.7652 2.49459 60.8416C3.47162 61.071 4.53638 60.6887 4.53638 60.6887L4.46126 58.1404C4.46126 58.1404 6.5784 58.2168 7.63055 57.6817L7.63078 57.6813ZM6.57863 55.6045C6.12767 55.9867 5.43875 56.0632 4.46149 55.9867C4.38636 55.2986 4.38636 54.6743 4.46149 53.8207C4.46149 53.8207 5.88948 53.6679 6.57863 54.0628C7.1173 54.3686 7.04218 55.2096 6.57863 55.6045ZM18.053 52.6867C18.053 52.6867 17.3139 52.0624 15.8983 51.7693C14.32 51.387 12.2155 51.6929 11.3259 52.4575C10.1987 53.362 10.424 55.5027 11.1003 56.178C11.9145 56.9426 13.7184 56.9426 14.8459 57.5541C15.0589 57.6305 15.2091 57.7835 15.134 58.0892C15.0589 58.3822 14.8459 58.5351 14.5454 58.5351C13.4932 58.7007 12.8918 58.1656 11.8396 57.8597C10.7875 57.5538 10.0484 58.7771 10.0484 58.7771C10.274 59.6053 11.5515 60.9049 14.0944 60.9813C16.0361 61.0577 17.9902 60.1404 18.2032 58.5351C18.5039 56.7131 17.4641 55.8847 15.4347 55.4134C13.6435 55.044 13.3428 54.8145 13.3428 54.5853C13.3428 54.0502 13.6435 53.9863 14.0944 53.9863C14.6956 53.9863 15.2093 54.203 15.6729 54.3558C16.1113 54.5086 16.6373 54.5086 17.0759 54.203C18.053 53.6679 18.053 52.6867 18.053 52.6867ZM23.3016 51.5655C20.8714 51.4891 18.9801 53.7315 18.9047 56.2861C18.7545 58.8281 20.646 60.8285 23.0762 60.9941C25.5816 61.1344 27.9241 58.8281 27.7738 56.2861C27.6234 53.4894 26.1828 51.5655 23.3018 51.5655H23.3016ZM23.2139 58.1274C22.1617 58.1274 21.4852 57.2843 21.5479 56.2863C21.6357 55.3519 22.1617 54.4196 23.2139 54.4196C24.4289 54.4196 24.8924 55.2753 24.8924 56.2863C24.8924 57.361 24.3664 58.1274 23.2139 58.1274ZM33.8491 57.9746C33.4606 58.4333 32.5589 58.5861 31.9701 58.2802C31.2184 57.9746 30.9805 57.4371 30.9805 56.1461C30.9805 55.0715 31.3563 54.6107 32.1203 54.305C32.7092 54.0756 33.323 54.305 33.6862 54.6109C33.9869 54.8425 34.5004 54.9953 34.8763 54.7786C35.49 54.3814 36.0789 53.5533 36.0789 53.5533C35.1144 51.8588 33.9118 51.5657 32.3333 51.5657C30.1663 51.6421 28.2873 53.3112 28.2873 56.1463C28.2873 58.9686 29.7153 60.9562 32.6464 60.9562C34.8135 60.9562 36.0786 59.3506 36.3168 58.4333C36.3168 58.4333 36.0161 57.9746 35.1893 57.5902C34.5881 57.2971 34.2874 57.5266 33.8491 57.9746ZM36.9682 60.7649C36.9682 60.7649 38.0581 60.9177 38.7972 60.8413C39.5739 60.6757 39.7241 60.2042 39.8118 59.4524C39.8869 58.7389 39.8869 57.9489 39.8869 57.9489H42.2544C42.2544 57.9489 42.3421 58.4969 42.4172 59.3632C42.4172 60.2042 42.4172 60.8411 42.4172 60.8411C43.2566 60.8411 44.4842 61.1595 45.0229 60.5226C45.549 59.9111 45.2483 58.2674 45.2483 56.4836C45.336 54.685 45.549 52.6401 45.2483 52.0262C44.7847 51.3106 43.4069 51.6291 42.4172 51.6291C42.4172 51.6291 42.4924 52.1027 42.4172 52.4996C42.4172 53.0368 42.3421 55.2986 42.3421 55.2986H39.8869C39.8869 55.2986 39.8869 52.8819 39.8118 52.334C39.649 51.784 39.4236 51.6291 38.7221 51.6291C38.1333 51.6291 36.9684 51.784 36.9684 51.784C36.9684 51.784 37.0435 54.3663 37.0435 56.4834C37.0435 58.5858 36.9684 60.7645 36.9684 60.7645L36.9682 60.7649ZM54.28 56.4179C53.5911 54.579 52.6766 52.1921 52.6766 52.1921C52.6766 52.1921 51.6244 51.5657 50.572 51.5657C49.6575 51.5657 49.357 52.3324 49.2066 52.8057C49.1314 52.9585 48.5176 54.3495 47.9164 55.9721C47.0771 57.962 46.1754 60.4208 46.1754 60.4208C46.1754 60.4208 46.8517 60.7393 47.9164 60.8923C48.2169 60.8923 48.593 60.8159 48.8184 60.4973C49.2068 59.975 49.57 59.1212 49.57 59.1212C50.4218 59.274 51.3988 59.274 52.301 59.1976C52.301 59.274 52.6017 60.1278 52.8396 60.5865C52.9901 60.8923 53.2906 60.9688 53.5913 60.9688C55.4077 60.9688 55.6331 60.3444 55.6331 60.3444C55.6331 60.3444 54.9442 58.3568 54.2802 56.4179H54.28ZM49.9585 57.2738C49.9585 57.2738 50.4971 55.9721 51.0106 54.8105L52.088 57.3505C50.9355 57.5161 49.9585 57.2741 49.9585 57.2741V57.2738ZM49.5826 51.298C49.5826 51.298 50.234 51.5147 51.9627 50.7119C52.7643 50.3424 52.9773 49.8199 52.9773 49.3868C52.9773 48.941 52.6892 48.6479 52.6892 48.6479C52.6892 48.6479 50.5972 49.4507 49.8708 50.0496C49.2194 50.6357 49.5826 51.2983 49.5826 51.2983V51.298ZM56.9482 51.6039C56.9482 51.6039 56.4972 52.8397 56.8731 53.6807C57.2489 54.6109 60.8064 54.2922 60.8064 54.2922C60.8064 54.2922 58.6895 56.5221 57.324 58.1402C56.6351 58.994 56.5724 60.7649 56.5724 60.7649C59.0651 60.3062 61.5578 60.9177 62.6226 60.9177C63.7625 60.9177 64.2134 60.7649 64.9651 60.3062C65.7291 59.6819 65.0528 58.1402 65.0528 58.1402C62.9984 58.4586 60.7311 58.3058 60.7311 58.3058C61.633 57.2228 62.4724 56.1398 63.7625 54.9929C65.1905 53.6041 64.6644 51.7567 64.6644 51.7567C63.9878 51.6803 60.4177 51.8331 59.7414 51.8331C58.9898 51.8331 56.948 51.6037 56.948 51.6037L56.9482 51.6039ZM71.7547 55.7957C72.5063 54.9547 73.2578 54.1138 73.6336 53.5023C74.3102 52.4321 74.4604 51.8203 74.4604 51.8203C73.7841 51.7439 72.3559 51.3616 71.8298 51.8967C71.3788 52.3554 71.0781 52.8141 70.5646 53.4256C69.9634 54.1902 68.7608 55.7191 68.7608 55.7191V51.9731C68.7608 51.9731 68.6857 51.5909 67.5582 51.5909C66.506 51.5909 66.0551 51.8203 66.0551 51.8203V60.4462C66.0551 60.4462 66.506 60.8285 67.6333 60.8285C68.8359 60.9049 68.8359 60.6757 68.8359 60.6757C68.8359 60.6757 68.911 59.0702 68.8359 58.3822C68.8359 58.3822 69.6627 57.6177 70.0386 57.312C70.0386 57.312 70.8653 58.9176 71.3788 60.0642C71.9049 61.1344 73.6336 61.058 74.6106 60.6757C74.6106 60.6757 73.1827 58.2294 72.8068 57.4649C72.3559 56.3947 71.7547 55.7957 71.7547 55.7957ZM78.093 57.8599C78.093 58.803 78.0303 60.7267 78.0303 60.7267C78.0303 60.7395 79.7716 61.1344 80.6107 60.8287C81.0743 60.7395 81.2122 60.2808 81.2122 60.0516C81.2122 59.7332 81.1494 57.8728 81.1494 57.8728C81.7508 56.4967 83.5796 54.5473 84.4188 51.8334C83.9678 51.6039 83.2038 51.6039 82.59 51.6039C82.0513 51.6931 81.6004 51.9223 81.2997 52.5467C81.0741 53.0692 79.6962 55.4134 79.6962 55.4134C79.6962 55.4134 78.6315 53.6169 78.3182 52.929C77.9423 52.0754 77.5665 51.6931 76.4266 51.6931C75.3619 51.6931 74.8232 51.9226 74.8232 51.9226C74.8232 51.9098 77.4914 56.5477 78.0926 57.8602L78.093 57.8599Z" fill="#0B3329"/>
<path fill-rule="evenodd" clip-rule="evenodd" d="M5.08429 22.2728C5.03986 22.1207 5.02337 21.965 5.03116 21.8104C5.54555 21.5129 6.15294 21.4015 6.67741 21.6077C7.54039 20.8888 8.69355 20.5428 9.80182 20.6689C10.223 20.7169 10.6625 20.8268 11.0791 20.8159C10.9131 21.0544 10.7012 21.2611 10.4326 21.3547C10.1094 21.4675 9.75762 21.4029 9.41728 21.3715C8.87723 21.3212 8.29596 21.3701 7.85989 21.6981C7.64918 21.8565 7.48588 22.0708 7.29029 22.2481C7.03332 22.4806 6.72001 22.6488 6.38586 22.7329C6.04552 22.8184 5.65778 22.8079 5.37745 22.5929C5.26247 22.5046 5.17224 22.3883 5.08406 22.2728H5.08429ZM5.12826 21.3419C5.24095 21.0328 5.44295 20.7509 5.69809 20.541C6.19897 20.1282 6.87873 19.9868 7.52138 20.0462C7.72178 20.0651 7.9215 20.1016 8.12281 20.0863C8.51125 20.0569 8.85845 19.8361 9.17314 19.6015C9.48714 19.3667 9.79449 19.1083 10.1637 18.9792C10.5329 18.8504 10.9875 18.8854 11.2493 19.1789C11.5395 19.5048 11.4852 20.0001 11.3052 20.4152C10.9992 20.4748 10.6424 20.4175 10.289 20.3609L10.2876 20.3607C10.1316 20.3358 9.97611 20.3106 9.84259 20.2954C9.23978 20.227 8.62461 20.2866 8.04334 20.4613C7.52574 20.6169 7.03493 20.8629 6.60275 21.19C6.28829 21.1075 5.95964 21.1087 5.63854 21.1767C5.46494 21.2135 5.29362 21.2694 5.12826 21.3419Z" fill="#0B3329"/>
<path fill-rule="evenodd" clip-rule="evenodd" d="M17.8004 30.1449C17.8199 30.5281 17.8393 30.9122 17.8542 31.2964C18.0924 31.1696 18.3224 31.0205 18.5381 30.8379C19.1913 31.615 20.0385 32.1839 20.89 32.7463C20.9402 32.3899 20.9647 32.0304 20.9502 31.6703C20.9214 30.9458 20.7283 30.215 20.3138 29.6251C20.0811 29.2936 19.7813 29.0113 19.4391 28.8005C19.1931 28.6493 18.9059 28.5314 18.6228 28.5854C18.288 28.6493 18.0324 28.9456 17.9161 29.2713C17.7997 29.5969 17.8011 29.798 17.8004 30.1449ZM17.8682 31.7089C17.897 32.6969 17.8856 33.6849 17.7589 34.6633C17.5654 36.1584 17.0847 37.6486 16.1548 38.8227C15.9833 39.0398 15.7877 39.2677 15.7712 39.5458C15.7499 39.9221 16.0937 40.2456 16.4608 40.2983C16.8279 40.3509 17.1944 40.1904 17.4974 39.9726C18.1586 39.4976 18.5912 38.7661 18.9742 38.0409C19.683 36.6986 20.2931 35.2939 20.6713 33.8198C20.7281 33.5982 20.7796 33.3746 20.8227 33.1495L20.7645 33.1111C19.9615 32.5811 19.1572 32.0502 18.4909 31.3444C18.2898 31.4853 18.0814 31.6048 17.868 31.7089H17.8682Z" fill="#0B3329"/>
<path fill-rule="evenodd" clip-rule="evenodd" d="M10.7478 31.6449C10.801 31.8836 10.8415 32.125 10.8695 32.3673C10.9212 32.292 10.9728 32.2168 11.0234 32.1415C11.8021 32.3789 12.6082 32.4563 13.4176 32.4211C13.4098 31.9661 13.3164 31.5114 13.0145 31.188C12.6701 30.8195 12.1218 30.7116 11.6273 30.7843C11.3621 30.8237 11.0935 30.9148 10.9047 31.1081C10.7153 31.3008 10.6271 31.401 10.7476 31.6449H10.7478ZM10.9137 32.952C10.9954 35.248 10.0115 37.5832 8.26541 39.0517C8.02561 39.2535 7.74528 39.5624 7.90171 39.8359C7.9734 39.9605 8.11723 40.0215 8.25441 40.06C9.14579 40.3074 10.1162 39.9127 10.7879 39.2674C12.0819 38.0242 13.2857 34.5538 13.4066 32.8015L13.4069 32.7973C12.6561 32.8278 11.9072 32.7654 11.1775 32.5755C11.0912 32.7011 11.0032 32.8267 10.9137 32.952Z" fill="#0B3329"/>
<path fill-rule="evenodd" clip-rule="evenodd" d="M24.0087 6.77301L23.986 6.61926C24.4794 6.20553 25.0343 5.86285 25.603 5.56234C25.4504 4.63494 25.4319 3.71732 25.4809 2.79039C26.0139 3.62321 26.5266 4.46814 27.23 5.297C26.2028 5.67253 25.0311 6.39888 24.0085 6.77301H24.0087ZM23.9258 6.18783C23.6626 4.20746 23.5969 2.34707 23.691 0.440784C24.2732 1.03249 24.7267 1.64703 25.1435 2.27229C25.0652 3.30173 25.054 4.31928 25.1976 5.35524C24.8376 5.55488 24.4819 5.77526 24.1411 6.02452C24.0685 6.07764 23.9966 6.13215 23.9258 6.18783Z" fill="#0B3329"/>
<path fill-rule="evenodd" clip-rule="evenodd" d="M66.2939 26.6342C66.318 26.9711 66.3722 27.3033 66.4533 27.628C66.498 27.5635 66.5438 27.5003 66.5907 27.4384C66.8759 27.1174 67.3186 26.4243 67.6037 26.1035C67.6138 26.381 67.6491 26.6498 67.7336 27.0864C68.6806 25.8526 69.1075 24.7601 69.5491 23.2608L69.837 24.2359C70.6258 22.5398 71.0575 20.6726 71.1573 18.795C71.3406 18.9194 71.5284 19.0363 71.721 19.1451C71.15 18.0595 70.2758 17.127 69.0723 16.6336C68.161 17.4455 67.2863 18.3179 66.6228 19.3485C65.9588 20.3791 65.5138 21.5849 65.5313 22.8172C65.5505 24.2136 66.2138 25.5258 66.2939 26.6342ZM66.5901 28.0955C67.126 29.6911 68.3096 31.0676 69.7763 31.8811C70.8026 32.4507 71.9647 32.777 72.898 33.4931C74.7123 34.8846 75.2576 37.3954 75.423 39.7005C75.5215 41.0689 75.5313 42.444 75.4525 43.8145C75.4292 44.2294 75.3973 44.6525 75.4967 45.0553C75.5959 45.4587 75.8515 45.8475 76.2365 45.9857C76.665 46.1392 77.1554 45.9444 77.4769 45.6185C77.7987 45.2919 77.9845 44.8556 78.1507 44.4253C78.9498 42.3606 79.4759 40.1692 79.5077 37.951C79.5393 35.7321 79.0607 33.4831 77.9606 31.5678C77.5818 30.9071 77.1265 30.2842 76.5555 29.7868C76.0134 29.3153 75.3756 28.9656 74.711 28.7029C74.129 28.4732 73.5145 28.3029 72.9964 27.9476C71.8875 27.1875 71.4473 25.567 72.0141 24.3347C72.2464 24.6436 72.4784 24.9527 72.7106 25.2616C72.7182 23.6123 72.7037 21.9336 72.2196 20.3595C72.152 20.1396 72.0737 19.9216 71.9846 19.7072C71.8142 19.6238 71.6461 19.5341 71.481 19.4391C71.4106 20.2055 71.2858 20.9671 71.1047 21.7132C70.8807 22.6371 70.5701 23.5382 70.1711 24.3967L69.7593 25.2821L69.534 24.519C69.4213 24.8341 69.3011 25.1356 69.1664 25.431C68.8751 26.07 68.5176 26.6752 68.024 27.3177L67.5261 27.9662L67.3504 27.0542C67.1837 27.2862 67.019 27.5129 66.8795 27.673C66.7779 27.8071 66.6814 27.9485 66.5901 28.096V28.0955Z" fill="#0B3329"/>
<path fill-rule="evenodd" clip-rule="evenodd" d="M34.4527 24.6858C34.3936 25.3236 34.3199 25.9598 34.2321 26.5941C34.4103 26.8513 34.5954 27.1036 34.7869 27.3508C34.8391 26.9718 34.8922 26.5934 34.9451 26.2151C36.1171 27.8773 37.7324 29.2093 39.5648 30.1183C39.9155 29.1091 40.2391 28.0911 40.5437 27.0719C40.6628 26.674 40.7808 26.2626 40.7421 25.8487C40.6752 25.1256 40.1475 24.5315 39.5717 24.102C38.5454 23.3362 37.2063 22.9116 35.9755 23.243C35.1544 23.4644 34.5042 24.1334 34.4527 24.6855V24.6858ZM34.155 27.1281C33.6841 30.2436 32.8706 33.3056 31.7328 36.2381C31.1577 37.7206 30.477 39.2031 29.3717 40.3325C28.0981 41.6336 26.3726 42.3539 24.6823 43.0003C24.3482 43.128 23.9611 43.3193 23.9185 43.6792C23.8649 44.1367 24.3986 44.4128 24.8408 44.5122C27.362 45.0783 30.1238 44.4027 32.1166 42.7327C32.6319 42.3003 33.0962 41.8085 33.5368 41.2979C36.2327 38.1763 38.0478 34.4019 39.4403 30.474C38.7367 30.1276 38.0636 29.7204 37.4335 29.2578C36.6008 28.6462 35.8434 27.9385 35.1886 27.1462L35.0324 28.2754L34.4962 27.5835C34.3803 27.4337 34.2665 27.2821 34.1552 27.1283L34.155 27.1281Z" fill="#0B3329"/>
<path fill-rule="evenodd" clip-rule="evenodd" d="M49.1441 13.8999C53.2307 13.1376 57.1225 11.1016 61.2767 11.1948C64.0614 11.2579 66.8139 12.3241 68.934 14.1619C70.6485 15.0595 72.5779 15.2296 74.3934 14.934C76.2091 14.6383 77.9282 13.904 79.5648 13.0521C82.1341 11.7147 84.6532 9.95683 85.9673 7.34352C86.2014 10.0235 85.16 12.7894 83.2259 14.6244C83.5096 14.5752 83.7941 14.527 84.0778 14.4778C82.5232 16.3135 80.5671 18.0195 78.2023 18.3081C78.6741 18.4194 79.1294 18.6037 79.5467 18.8539C77.5265 19.3906 75.3851 19.45 73.3387 19.0284C73.6231 19.3072 73.8533 19.6436 74.0116 20.0122C72.9949 19.7979 72.0202 19.3823 71.1572 18.7952C71.0573 20.6728 70.6254 22.54 69.8368 24.2361C69.7411 23.9112 69.6447 23.586 69.549 23.261C69.1076 24.7603 68.6807 25.8529 67.7334 27.0866C67.6489 26.6503 67.6137 26.3814 67.6036 26.1038C67.3184 26.4245 66.8757 27.1178 66.5906 27.4386C65.7239 28.5806 65.2247 30.1842 64.8974 31.7795C64.5703 33.3748 64.3953 35.0053 63.9483 36.5703C62.6431 41.146 58.8952 44.9166 54.3829 46.1946C54.0309 46.2941 53.6466 46.3782 53.3085 46.238C52.9359 46.0838 52.703 45.6747 52.6789 45.2656C52.6549 44.8572 52.8111 44.4549 53.0358 44.1153C53.4249 43.5268 54.0057 43.1035 54.5311 42.6362C56.6759 40.7292 57.9929 37.8909 58.0769 34.9939C58.1502 32.4726 57.3374 29.9548 57.579 27.4568C57.7899 26.339 58.0494 25.2295 58.3556 24.1327C58.6662 23.0206 59.0255 21.9206 59.4325 20.8373L59.0867 20.7034C58.677 21.7938 58.3142 22.9048 57.9997 24.0311C57.7022 25.0967 57.4482 26.1762 57.2391 27.265C55.1891 28.3152 53.0836 29.1608 50.9147 29.777C50.0646 30.0188 49.1824 30.2262 48.3056 30.1595C48.3546 29.9054 48.4089 29.6351 48.465 29.37C48.5498 28.9701 48.6384 28.5827 48.7186 28.2791L48.7655 28.3308C48.8958 28.4746 49.0165 28.6129 49.1052 28.7159L49.4162 29.0779L49.4286 28.5966C49.4334 28.4133 49.429 27.9949 49.4217 27.5805C49.4128 27.0645 49.3986 26.5501 49.3908 26.4937L49.0248 26.5452C49.0312 26.592 49.044 27.0852 49.053 27.5863C49.0562 27.7636 49.0587 27.9416 49.0603 28.1007L49.0378 28.076C48.9446 27.9732 48.8484 27.8703 48.7598 27.7815L48.5461 27.567L48.4545 27.8579C48.3501 28.1897 48.2223 28.731 48.1034 29.2918C47.996 29.7989 47.8952 30.3238 47.8254 30.7249C47.0263 32.884 46.2888 35.0218 45.5516 37.1606C46.6232 37.4904 47.7033 37.7919 48.791 38.0642C49.1114 37.1892 49.5754 36.3688 50.1589 35.6485C50.3999 35.3507 50.8602 35.0635 51.1094 35.3542C51.1712 35.4265 51.201 35.521 51.2264 35.6135C51.6355 37.0982 51.2913 38.7761 50.333 39.9705C49.375 41.1651 47.8279 41.8446 46.3158 41.7354C45.5314 41.6785 44.7683 41.423 44.0746 41.0454C43.5359 40.7525 43.0339 40.3833 42.6246 39.923C42.2368 39.4864 41.9384 38.9744 41.7043 38.4363C40.712 36.1551 40.8975 33.553 41.1425 31.0625C41.2639 30.3729 41.4174 29.6904 41.6015 29.0173C41.8049 28.2744 42.047 27.5404 42.3268 26.8192L41.9824 26.6822C41.6993 27.4118 41.4533 28.1582 41.2456 28.9172C41.0871 29.4958 40.9515 30.0803 40.8388 30.669C38.4856 29.795 36.3817 28.253 34.9443 26.2149C34.8914 26.5932 34.8383 26.9715 34.7861 27.3505C33.591 25.8086 32.6508 24.0626 32.0171 22.208C32.0061 22.6185 31.9076 23.0271 31.729 23.3961C30.9288 21.9732 30.304 20.448 29.8734 18.8681C29.7509 19.2991 29.6281 19.7291 29.5063 20.1601C28.8465 18.6074 28.3593 16.9793 28.0577 15.316C25.706 16.3403 23.2691 17.1908 20.7647 17.1622C19.0278 17.1421 17.248 16.6404 15.8376 15.6407C15.9084 15.5732 15.9757 15.5024 16.0396 15.4283C16.2659 15.1669 16.4496 14.8659 16.5781 14.5405C16.7059 14.216 16.7773 13.8686 16.7915 13.5192C16.8009 13.2893 16.7856 13.0582 16.745 12.8317C18.6132 11.9444 20.4496 11.0534 22.2676 10.1253C22.2319 9.03432 22.6505 8.06406 23.2815 7.3158C23.9125 6.56754 24.7418 6.01683 25.6023 5.5621C25.299 3.71965 25.5249 1.91656 25.7598 -0.000204086C29.3024 3.10045 32.13 6.59061 36.1857 8.9041C35.8634 9.12471 35.4356 9.17736 35.0705 9.04061C36.7953 10.2723 38.6819 11.2679 40.6655 11.9915C40.3845 12.1604 40.0517 12.2396 39.726 12.2135C41.7298 13.2835 44.0647 13.7002 46.3069 13.3869C46.2208 13.6012 46.0279 13.7673 45.806 13.8179C47.0162 14.0799 48.2685 14.0625 49.1434 13.8992L49.1441 13.8999ZM15.4613 15.3547C14.9916 14.9722 14.572 14.5286 14.2205 14.0226C14.9222 13.6937 15.6187 13.3662 16.3106 13.0386C16.3307 13.1919 16.3376 13.3468 16.3312 13.5015C16.319 13.7971 16.2584 14.0913 16.1503 14.3665C16.0422 14.6402 15.886 14.895 15.6931 15.1182C15.6205 15.2021 15.5431 15.2813 15.4613 15.3549V15.3547ZM23.743 9.94215L23.7568 9.82078C23.8442 9.04853 23.8871 8.67138 24.3085 8.55653C24.7675 8.43143 24.9127 8.70469 25.062 9.27171C25.0837 9.35441 25.1057 9.44386 25.1293 9.54054L25.1967 9.8131L24.75 9.93074C24.7189 9.80914 24.699 9.72807 24.6809 9.65445C24.6573 9.55941 24.6358 9.47135 24.6152 9.39308C24.5448 9.12587 24.4979 8.99146 24.4276 9.01056C24.3099 9.04271 24.2789 9.3155 24.2157 9.87413L24.202 9.9955L23.7428 9.94215H23.743Z" fill="#0B3329"/>
<path fill-rule="evenodd" clip-rule="evenodd" d="M21.5432 25.3478C22.1776 25.5896 22.8917 25.5791 23.5387 25.3737C24.1855 25.1684 24.7668 24.7761 25.2475 24.2914C25.6891 23.8457 26.05 23.3232 26.4985 22.8852C26.6107 22.776 26.7396 22.6667 26.8947 22.652C27.0834 22.6346 27.2618 22.769 27.3486 22.9407C27.4354 23.1124 27.4457 23.3127 27.4368 23.5047C27.396 24.3489 27.0001 25.154 26.4188 25.7585C25.8375 26.363 25.0826 26.7751 24.2884 27.023C23.7188 27.201 23.1056 27.2984 22.5264 27.1563C23.2048 28.0587 23.1629 29.2988 22.9687 30.4135C22.9094 30.7547 22.8411 31.1226 22.9872 31.4357C23.1134 31.7061 23.3764 31.8806 23.634 32.0255C24.088 32.2806 24.5772 32.4949 24.9422 32.8697C25.215 33.15 25.4023 33.5053 25.553 33.8682C26.0354 35.0274 27.3278 39.4496 26.1659 39.8864C25.1 40.2887 24.8701 39.0422 24.8222 38.5825C24.6859 37.2878 24.3268 35.9818 23.5458 34.9505C22.231 33.2136 19.9386 32.504 18.5384 30.8379C17.9901 31.3017 17.3515 31.5505 16.7137 31.7606C14.8773 32.3666 12.8729 32.7057 11.0235 32.1418C10.2473 33.2921 9.3518 34.4539 8.25108 35.3899C7.15037 36.3259 5.82796 37.0313 4.40546 37.2249C3.97214 37.2838 3.52577 37.2943 3.10504 37.1764C2.9438 37.1317 2.78257 37.0651 2.66347 36.9467C2.54369 36.8277 2.47269 36.6476 2.51758 36.4836C2.57415 36.277 2.78486 36.1612 2.97976 36.0794C3.44606 35.8833 3.93596 35.7503 4.40844 35.5688C6.30755 34.8387 7.8883 33.2947 8.68166 31.3944C7.23099 29.9154 6.17379 28.103 5.57924 26.1441C4.91322 26.4749 4.25751 26.7395 3.56997 26.8755C2.88242 27.0114 2.16007 27.0142 1.49314 26.7963C1.22884 26.7099 0.975762 26.5888 0.741007 26.438C0.779942 26.408 0.817961 26.3765 0.854605 26.3442L0.865828 26.3348C0.960875 26.2496 1.0463 26.1566 1.11616 26.0534C1.18578 25.9509 1.24052 25.8375 1.27441 25.7115C1.29434 25.6376 1.30602 25.5628 1.31129 25.4881C1.31656 25.413 1.31541 25.3378 1.30991 25.263C1.30465 25.1903 1.29571 25.1195 1.28472 25.0501C1.28014 25.0214 1.27533 24.9926 1.27006 24.9632L3.62471 23.8574C3.77495 23.1294 4.15651 22.468 4.72198 22.021C5.28745 21.5739 6.04302 21.3589 6.67743 21.6084C7.54041 20.8895 8.69357 20.5435 9.80184 20.6696C10.4431 20.7425 11.1265 20.9596 11.7078 20.6745C12.044 20.5098 12.2877 20.1988 12.6006 19.9914C12.8802 19.8065 13.2134 19.7077 13.5469 19.7119C13.9244 19.7168 14.3245 19.8759 14.5107 20.2093C14.7745 20.6815 14.5196 21.2755 14.2152 21.7218C13.8405 22.2705 13.3708 22.7748 12.7728 23.0502C12.1743 23.3255 11.4309 23.3367 10.8916 22.9556C10.7262 22.8393 10.5851 22.69 10.4156 22.5808C9.8694 22.2276 9.14407 22.3459 8.57447 22.6537C9.7455 24.0605 11.2477 25.311 13.0373 25.5996C15.1148 25.9353 17.1667 24.9327 19.2655 24.7955C20.1031 24.7407 20.898 24.8025 21.5434 25.3483L21.5432 25.3478ZM0.510834 26.2759C0.358072 26.1585 0.215387 26.0278 0.0850694 25.8852C0.0527764 25.8496 0.0195672 25.8119 0.00651261 25.7648C-0.0356287 25.6169 0.127669 25.4999 0.265544 25.4349L1.02088 25.0801L1.0218 25.086C1.03233 25.1524 1.04103 25.2183 1.04562 25.2821C1.04997 25.3432 1.05111 25.404 1.04745 25.4638C1.04378 25.5239 1.03485 25.5833 1.01928 25.6411C0.993168 25.7385 0.948965 25.8275 0.891708 25.9092C0.835367 25.9901 0.766429 26.0642 0.690163 26.1324L0.679857 26.1422C0.626722 26.189 0.569923 26.2337 0.510605 26.2761L0.510834 26.2759ZM4.70412 22.8822C4.82505 22.9122 4.88459 23.1068 4.83741 23.3167C4.79023 23.5268 4.65396 23.6726 4.53303 23.6426C4.41234 23.6128 4.35279 23.418 4.39997 23.2081C4.44715 22.998 4.58342 22.8521 4.70412 22.8822Z" fill="#0B3329"/>
</g>
<defs>
<clipPath id="clip0_28_119">
<rect width="86" height="61" fill="white"/>
</clipPath>
</defs>
</svg>
