<svg width="66" height="63" viewBox="0 0 66 63" fill="none" xmlns="http://www.w3.org/2000/svg">
<path d="M65.2646 16.4253C65.6951 18.0318 65.6395 19.7298 65.1049 21.3046C64.5703 22.8794 63.5807 24.2604 62.2613 25.2728C60.9419 26.2852 59.3519 26.8837 57.6923 26.9925C56.0328 27.1012 54.3783 26.7154 52.938 25.8839C51.4977 25.0524 50.3363 23.8124 49.6008 22.3208C48.8652 20.8292 48.5885 19.153 48.8055 17.5041C49.0226 15.8553 49.7238 14.3078 50.8203 13.0574C51.9169 11.807 53.3596 10.9099 54.966 10.4794C57.1202 9.90224 59.4154 10.2044 61.3468 11.3195C63.2781 12.4346 64.6874 14.2712 65.2646 16.4253ZM16.5311 29.4834C16.1007 27.877 15.2036 26.4343 13.9532 25.3377C12.7028 24.2412 11.1553 23.54 9.50645 23.323C7.85758 23.1059 6.18137 23.3826 4.68978 24.1182C3.19819 24.8538 1.95822 26.0151 1.12667 27.4554C0.295125 28.8957 -0.0906563 30.5502 0.0181155 32.2098C0.126887 33.8693 0.725326 35.4593 1.73776 36.7787C2.75019 38.0981 4.13113 39.0877 5.70597 39.6223C7.28081 40.1569 8.9788 40.2125 10.5852 39.782C12.7394 39.2048 14.576 37.7955 15.6911 35.8642C16.8062 33.9328 17.1083 31.6376 16.5311 29.4834ZM20.7782 22.1273C22.3846 21.6969 23.8273 20.7997 24.9239 19.5493C26.0205 18.299 26.7216 16.7515 26.9387 15.1026C27.1558 13.4537 26.879 11.7775 26.1434 10.286C25.4079 8.79436 24.2465 7.5544 22.8062 6.72285C21.366 5.8913 19.7114 5.50552 18.0519 5.61429C16.3924 5.72306 14.8023 6.3215 13.4829 7.33393C12.1635 8.34636 11.1739 9.72731 10.6393 11.3021C10.1047 12.877 10.0492 14.575 10.4796 16.1814C11.0568 18.3356 12.4661 20.1722 14.3975 21.2873C16.3288 22.4023 18.624 22.7045 20.7782 22.1273ZM41.664 16.531C43.2704 16.1005 44.7131 15.2034 45.8097 13.953C46.9062 12.7026 47.6074 11.1552 47.8245 9.50629C48.0415 7.85742 47.7648 6.18121 47.0292 4.68962C46.2937 3.19804 45.1323 1.95807 43.692 1.12652C42.2517 0.294969 40.5972 -0.0908109 38.9377 0.0179609C37.2781 0.126733 35.6881 0.725171 34.3687 1.7376C33.0493 2.75003 32.0597 4.13098 31.5251 5.70582C30.9905 7.28065 30.9349 8.97865 31.3654 10.5851C31.9426 12.7392 33.3519 14.5759 35.2832 15.6909C37.2146 16.806 39.5098 17.1082 41.664 16.531ZM53.1011 32.3882C51.7481 32.0538 50.4743 31.4558 49.3527 30.6286C48.231 29.8013 47.2835 28.761 46.5643 27.5672C45.0817 25.1204 42.845 23.2209 40.1904 22.1541C37.5359 21.0874 34.6068 20.911 31.8433 21.6514C29.0799 22.3919 26.6315 24.0092 24.8659 26.2603C23.1004 28.5115 22.1131 31.2748 22.0525 34.1351C22.0046 36.9379 20.8471 39.6073 18.8337 41.5577C16.893 43.3941 15.6199 45.8251 15.2157 48.4662C14.8116 51.1073 15.2995 53.8078 16.6024 56.1405C17.9052 58.4732 19.9485 60.305 22.4091 61.3461C24.8698 62.3873 27.6073 62.5783 30.1887 61.8891C31.7364 61.479 33.1851 60.7598 34.4475 59.7749C38.4859 56.6864 43.5821 55.3208 48.6237 55.9763C51.694 56.4355 54.8228 55.6882 57.3542 53.8911C59.8856 52.094 61.6229 49.3867 62.202 46.3367C62.7811 43.2868 62.157 40.1311 60.4604 37.5312C58.7639 34.9314 56.1268 33.0893 53.1019 32.3911L53.1011 32.3882Z" fill="#0B3329"/>
</svg>
