<svg width="284" height="284" viewBox="0 0 284 284" fill="none" xmlns="http://www.w3.org/2000/svg">
<circle cx="142" cy="142" r="142" fill="#D9D9D9"/>
<path fill-rule="evenodd" clip-rule="evenodd" d="M34.4135 139.002C34.2876 138.572 34.2408 138.132 34.2629 137.694C35.7211 136.853 37.4429 136.538 38.9297 137.121C41.376 135.087 44.645 134.109 47.7867 134.465C48.9806 134.601 50.2265 134.912 51.4075 134.881C50.9368 135.556 50.3362 136.14 49.5747 136.405C48.6586 136.724 47.6614 136.541 46.6966 136.453C45.1657 136.31 43.5179 136.449 42.2817 137.376C41.6844 137.824 41.2215 138.431 40.667 138.932C39.9386 139.59 39.0504 140.066 38.1032 140.303C37.1384 140.545 36.0392 140.516 35.2446 139.907C34.9186 139.658 34.6628 139.329 34.4129 139.002H34.4135ZM34.5382 136.369C34.8576 135.494 35.4302 134.697 36.1535 134.103C37.5734 132.936 39.5004 132.536 41.3221 132.704C41.8902 132.757 42.4564 132.861 43.027 132.817C44.1282 132.734 45.1124 132.109 46.0045 131.446C46.8946 130.782 47.7659 130.051 48.8125 129.686C49.859 129.321 51.1478 129.42 51.8899 130.251C52.7125 131.172 52.5586 132.573 52.0483 133.748C51.1809 133.916 50.1694 133.754 49.1676 133.594L49.1637 133.593C48.7216 133.523 48.2807 133.452 47.9022 133.409C46.1934 133.215 44.4495 133.384 42.8018 133.878C41.3345 134.318 39.9431 135.014 38.718 135.939C37.8266 135.706 36.8949 135.709 35.9847 135.902C35.4926 136.006 35.0069 136.164 34.5382 136.369Z" fill="#0B3329"/>
<path fill-rule="evenodd" clip-rule="evenodd" d="M70.4609 161.269C70.5161 162.353 70.5713 163.44 70.6135 164.526C71.2887 164.168 71.9405 163.746 72.5521 163.229C74.4038 165.428 76.8053 167.037 79.2192 168.627C79.3614 167.619 79.4309 166.603 79.39 165.584C79.3082 163.534 78.7608 161.467 77.5857 159.799C76.9261 158.861 76.0762 158.063 75.1062 157.466C74.409 157.039 73.5948 156.705 72.7923 156.858C71.8431 157.039 71.1186 157.877 70.7888 158.798C70.459 159.719 70.4629 160.288 70.4609 161.269ZM70.6531 165.693C70.7349 168.488 70.7024 171.282 70.3434 174.05C69.7948 178.279 68.432 182.494 65.7961 185.815C65.3098 186.43 64.7553 187.074 64.7086 187.861C64.6482 188.925 65.6227 189.84 66.6635 189.989C67.7042 190.138 68.743 189.684 69.602 189.068C71.4763 187.724 72.7027 185.655 73.7883 183.604C75.7977 179.807 77.5273 175.834 78.5992 171.664C78.7602 171.037 78.9063 170.405 79.0283 169.768L78.8634 169.659C76.5872 168.16 74.307 166.659 72.4184 164.662C71.8483 165.061 71.2575 165.399 70.6524 165.693H70.6531Z" fill="#0B3329"/>
<path fill-rule="evenodd" clip-rule="evenodd" d="M50.4681 165.512C50.6187 166.187 50.7336 166.87 50.8128 167.555C50.9596 167.343 51.1056 167.13 51.2491 166.917C53.4566 167.588 55.7419 167.807 58.0363 167.708C58.0142 166.421 57.7494 165.134 56.8937 164.22C55.9172 163.177 54.3629 162.872 52.9612 163.078C52.2094 163.189 51.4478 163.447 50.9128 163.994C50.3759 164.539 50.1259 164.822 50.4674 165.512H50.4681ZM50.9381 169.209C51.1699 175.704 48.3808 182.309 43.4309 186.463C42.7512 187.034 41.9565 187.908 42.3999 188.681C42.6031 189.034 43.0109 189.206 43.3998 189.315C45.9266 190.015 48.6775 188.899 50.5817 187.073C54.2499 183.557 57.6624 173.74 58.0052 168.784L58.0058 168.772C55.8776 168.858 53.7546 168.682 51.6861 168.145C51.4413 168.5 51.192 168.855 50.9381 169.209Z" fill="#0B3329"/>
<path fill-rule="evenodd" clip-rule="evenodd" d="M88.0599 95.159L87.9957 94.7241C89.3941 93.5538 90.9673 92.5845 92.5793 91.7345C92.1469 89.1112 92.0943 86.5156 92.2333 83.8937C93.7441 86.2494 95.1977 88.6394 97.1916 90.9839C94.2797 92.0462 90.9582 94.1008 88.0593 95.159H88.0599ZM87.8249 93.5038C87.0789 87.9021 86.8926 82.6397 87.1594 77.2476C88.8098 78.9213 90.0953 80.6596 91.2769 82.4282C91.0549 85.3401 91.0231 88.2184 91.4302 91.1487C90.4096 91.7134 89.4013 92.3368 88.4352 93.0418C88.2294 93.1921 88.0255 93.3463 87.8249 93.5038Z" fill="#0B3329"/>
<path fill-rule="evenodd" clip-rule="evenodd" d="M207.929 151.339C207.997 152.292 208.151 153.231 208.381 154.15C208.508 153.967 208.638 153.789 208.771 153.613C209.579 152.705 210.834 150.745 211.642 149.838C211.671 150.622 211.771 151.383 212.01 152.618C214.695 149.128 215.905 146.037 217.157 141.796L217.973 144.555C220.209 139.757 221.433 134.476 221.716 129.164C222.235 129.516 222.768 129.847 223.314 130.155C221.695 127.084 219.217 124.446 215.805 123.051C213.222 125.347 210.742 127.815 208.862 130.73C206.979 133.645 205.718 137.056 205.767 140.542C205.822 144.492 207.702 148.203 207.929 151.339ZM208.769 155.472C210.288 159.985 213.643 163.879 217.801 166.18C220.71 167.791 224.005 168.714 226.65 170.74C231.794 174.676 233.339 181.778 233.808 188.298C234.087 192.169 234.115 196.059 233.892 199.935C233.826 201.109 233.735 202.306 234.017 203.445C234.298 204.586 235.023 205.686 236.114 206.077C237.329 206.511 238.719 205.96 239.631 205.038C240.543 204.114 241.069 202.88 241.541 201.663C243.806 195.823 245.297 189.624 245.387 183.35C245.477 177.073 244.12 170.712 241.002 165.294C239.928 163.425 238.637 161.663 237.019 160.256C235.482 158.922 233.674 157.933 231.79 157.19C230.14 156.54 228.398 156.059 226.929 155.054C223.786 152.904 222.538 148.32 224.145 144.834C224.803 145.708 225.461 146.582 226.119 147.456C226.141 142.791 226.1 138.042 224.727 133.59C224.536 132.968 224.314 132.351 224.061 131.745C223.578 131.509 223.102 131.255 222.633 130.986C222.434 133.154 222.08 135.308 221.567 137.419C220.932 140.032 220.051 142.581 218.92 145.009L217.753 147.514L217.114 145.355C216.795 146.247 216.454 147.1 216.072 147.935C215.246 149.743 214.233 151.455 212.834 153.272L211.422 155.107L210.924 152.527C210.452 153.183 209.985 153.824 209.589 154.277C209.301 154.656 209.028 155.056 208.769 155.474V155.472Z" fill="#0B3329"/>
<path fill-rule="evenodd" clip-rule="evenodd" d="M117.666 145.827C117.499 147.632 117.29 149.431 117.041 151.225C117.546 151.953 118.071 152.667 118.613 153.366C118.761 152.294 118.912 151.223 119.062 150.153C122.384 154.855 126.963 158.623 132.158 161.194C133.152 158.339 134.069 155.46 134.933 152.577C135.27 151.451 135.605 150.288 135.495 149.117C135.305 147.071 133.81 145.391 132.177 144.176C129.268 142.01 125.472 140.809 121.983 141.746C119.655 142.372 117.812 144.265 117.666 145.827V145.827ZM116.822 152.736C115.487 161.548 113.181 170.21 109.956 178.504C108.325 182.698 106.396 186.892 103.263 190.086C99.6522 193.766 94.7608 195.804 89.9694 197.632C89.0221 197.993 87.9249 198.534 87.8042 199.553C87.6522 200.847 89.165 201.628 90.4187 201.909C97.5656 203.51 105.395 201.599 111.044 196.875C112.505 195.652 113.821 194.261 115.07 192.817C122.712 183.987 127.857 173.311 131.805 162.2C129.81 161.22 127.902 160.068 126.116 158.76C123.755 157.03 121.608 155.028 119.752 152.787L119.309 155.981L117.79 154.024C117.461 153.6 117.138 153.171 116.823 152.736L116.822 152.736Z" fill="#0B3329"/>
<path fill-rule="evenodd" clip-rule="evenodd" d="M159.313 115.318C170.898 113.162 181.93 107.403 193.706 107.666C201.6 107.845 209.403 110.861 215.413 116.059C220.273 118.598 225.743 119.079 230.889 118.243C236.036 117.407 240.91 115.33 245.549 112.92C252.832 109.137 259.973 104.165 263.699 96.7726C264.362 104.353 261.41 112.177 255.927 117.367C256.732 117.228 257.538 117.092 258.342 116.953C253.935 122.145 248.39 126.971 241.687 127.787C243.024 128.102 244.315 128.623 245.498 129.331C239.771 130.849 233.7 131.017 227.899 129.825C228.706 130.613 229.358 131.565 229.807 132.607C226.925 132.001 224.162 130.826 221.715 129.165C221.432 134.476 220.208 139.758 217.972 144.555C217.701 143.636 217.428 142.716 217.156 141.797C215.905 146.038 214.695 149.129 212.01 152.618C211.77 151.384 211.67 150.624 211.642 149.838C210.833 150.746 209.578 152.707 208.77 153.614C206.313 156.844 204.898 161.38 203.97 165.893C203.043 170.405 202.547 175.017 201.28 179.444C197.58 192.387 186.955 203.053 174.164 206.668C173.166 206.949 172.077 207.187 171.118 206.79C170.062 206.354 169.402 205.197 169.334 204.04C169.266 202.885 169.708 201.747 170.345 200.786C171.448 199.121 173.095 197.924 174.584 196.602C180.664 191.208 184.397 183.18 184.636 174.985C184.843 167.853 182.539 160.731 183.224 153.665C183.822 150.504 184.558 147.365 185.426 144.263C186.306 141.117 187.325 138.006 188.479 134.941L187.498 134.563C186.337 137.647 185.308 140.79 184.417 143.976C183.574 146.99 182.854 150.043 182.261 153.123C176.449 156.094 170.481 158.486 164.333 160.228C161.923 160.912 159.422 161.499 156.936 161.31C157.075 160.592 157.229 159.827 157.388 159.077C157.628 157.946 157.88 156.85 158.107 155.991L158.24 156.138C158.609 156.544 158.952 156.936 159.203 157.227L160.085 158.251L160.12 156.89C160.133 156.371 160.121 155.188 160.1 154.015C160.075 152.556 160.035 151.101 160.012 150.941L158.975 151.087C158.993 151.219 159.03 152.614 159.055 154.032C159.064 154.533 159.071 155.037 159.076 155.487L159.012 155.417C158.748 155.126 158.475 154.835 158.224 154.584L157.618 153.977L157.358 154.8C157.062 155.738 156.7 157.27 156.363 158.856C156.059 160.29 155.773 161.775 155.575 162.91C153.31 169.017 151.219 175.064 149.129 181.114C152.167 182.047 155.229 182.899 158.312 183.67C159.22 181.195 160.536 178.874 162.19 176.837C162.873 175.994 164.178 175.182 164.884 176.004C165.06 176.209 165.144 176.476 165.216 176.738C166.376 180.937 165.4 185.684 162.683 189.062C159.968 192.441 155.582 194.363 151.296 194.054C149.072 193.893 146.909 193.17 144.942 192.102C143.415 191.274 141.992 190.23 140.832 188.928C139.733 187.693 138.887 186.244 138.223 184.722C135.41 178.27 135.936 170.909 136.631 163.865C136.975 161.914 137.41 159.983 137.932 158.08C138.508 155.978 139.194 153.902 139.988 151.862L139.011 151.474C138.209 153.538 137.512 155.649 136.923 157.796C136.473 159.433 136.089 161.086 135.77 162.752C129.099 160.279 123.135 155.918 119.06 150.153C118.91 151.223 118.759 152.293 118.611 153.365C115.224 149.003 112.559 144.065 110.762 138.819C110.731 139.98 110.452 141.135 109.945 142.179C107.677 138.154 105.906 133.84 104.685 129.371C104.338 130.59 103.99 131.807 103.644 133.026C101.774 128.634 100.393 124.029 99.538 119.324C92.8715 122.221 85.9636 124.627 78.8641 124.546C73.9402 124.489 68.8949 123.07 64.8969 120.242C65.0975 120.051 65.2884 119.851 65.4695 119.641C66.111 118.902 66.6317 118.051 66.9959 117.13C67.3582 116.212 67.5607 115.23 67.601 114.241C67.6276 113.591 67.5841 112.937 67.4692 112.297C72.7651 109.787 77.9707 107.266 83.1244 104.641C83.0231 101.555 84.2099 98.8107 85.9986 96.6942C87.7873 94.5777 90.1382 93.0199 92.5774 91.7337C91.7178 86.522 92.358 81.4218 93.0241 76C103.067 84.7706 111.082 94.6429 122.579 101.187C121.666 101.811 120.453 101.96 119.418 101.573C124.307 105.057 129.655 107.873 135.278 109.92C134.482 110.398 133.538 110.622 132.615 110.548C138.295 113.574 144.914 114.753 151.27 113.867C151.026 114.473 150.48 114.943 149.851 115.086C153.281 115.827 156.831 115.778 159.311 115.316L159.313 115.318ZM63.8302 119.433C62.4986 118.351 61.3092 117.096 60.3126 115.665C62.3018 114.735 64.2762 113.808 66.2376 112.882C66.2947 113.315 66.3142 113.754 66.296 114.191C66.2616 115.027 66.0895 115.86 65.7831 116.638C65.4767 117.412 65.0339 118.133 64.4872 118.764C64.2814 119.001 64.062 119.226 63.8302 119.434V119.433ZM87.3068 104.123L87.3458 103.78C87.5938 101.595 87.7152 100.529 88.9098 100.204C90.2109 99.8499 90.6225 100.623 91.0458 102.227C91.1075 102.461 91.1698 102.714 91.2367 102.987L91.4276 103.758L90.1616 104.091C90.0733 103.747 90.0168 103.518 89.9655 103.309C89.8986 103.041 89.8376 102.791 89.7792 102.57C89.5798 101.814 89.4468 101.434 89.2474 101.488C88.9137 101.579 88.8261 102.351 88.6469 103.931L88.6079 104.274L87.3062 104.123H87.3068Z" fill="#0B3329"/>
<path fill-rule="evenodd" clip-rule="evenodd" d="M81.0709 147.7C82.8693 148.384 84.8936 148.354 86.7277 147.773C88.5612 147.193 90.209 146.083 91.5717 144.712C92.8235 143.451 93.8467 141.973 95.1179 140.734C95.436 140.425 95.8016 140.116 96.2411 140.075C96.7761 140.025 97.2818 140.406 97.5279 140.891C97.774 141.377 97.8032 141.944 97.7779 142.486C97.6623 144.874 96.5397 147.152 94.892 148.862C93.2442 150.572 91.1043 151.737 88.8527 152.439C87.238 152.942 85.5 153.217 83.8581 152.815C85.7811 155.368 85.6623 158.876 85.1117 162.029C84.9436 162.994 84.7501 164.035 85.1643 164.92C85.5221 165.685 86.2674 166.179 86.9978 166.589C88.2846 167.31 89.6714 167.917 90.7063 168.977C91.4795 169.769 92.0106 170.774 92.4378 171.801C93.8051 175.08 97.4688 187.589 94.1752 188.824C91.1536 189.962 90.5018 186.436 90.3661 185.136C89.9798 181.474 88.9618 177.78 86.7478 174.862C83.0205 169.949 76.5222 167.942 72.5528 163.229C70.9985 164.541 69.1884 165.245 67.3802 165.84C62.1746 167.553 56.4924 168.513 51.2498 166.918C49.0495 170.171 46.5109 173.458 43.3907 176.105C40.2704 178.753 36.5216 180.748 32.4892 181.296C31.2608 181.462 29.9954 181.492 28.8028 181.159C28.3457 181.032 27.8886 180.844 27.551 180.509C27.2115 180.172 27.0102 179.663 27.1375 179.199C27.2978 178.615 27.8951 178.287 28.4476 178.056C29.7695 177.501 31.1582 177.125 32.4976 176.611C37.8812 174.546 42.3623 170.179 44.6112 164.804C40.4989 160.62 37.502 155.493 35.8166 149.952C33.9286 150.888 32.0698 151.637 30.1207 152.021C28.1717 152.406 26.124 152.414 24.2334 151.797C23.4842 151.553 22.7668 151.21 22.1013 150.784C22.2117 150.699 22.3194 150.61 22.4233 150.518L22.4551 150.492C22.7246 150.251 22.9667 149.988 23.1647 149.696C23.3621 149.406 23.5173 149.085 23.6134 148.729C23.6699 148.52 23.703 148.308 23.7179 148.097C23.7328 147.885 23.7296 147.672 23.714 147.46C23.6991 147.255 23.6738 147.054 23.6426 146.858C23.6296 146.777 23.616 146.695 23.601 146.612L30.2759 143.484C30.7018 141.425 31.7835 139.554 33.3864 138.29C34.9894 137.025 37.1313 136.417 38.9297 137.123C41.376 135.089 44.645 134.111 47.7867 134.467C49.6046 134.673 51.5419 135.287 53.1897 134.481C54.1428 134.015 54.8336 133.135 55.7205 132.549C56.5132 132.026 57.4578 131.746 58.4031 131.758C59.4731 131.772 60.6073 132.222 61.1352 133.165C61.8831 134.501 61.1605 136.181 60.2976 137.444C59.2355 138.995 57.9039 140.422 56.2087 141.201C54.5122 141.98 52.4048 142.011 50.8758 140.933C50.407 140.605 50.0071 140.182 49.5267 139.873C47.9782 138.874 45.9221 139.209 44.3074 140.079C47.627 144.059 51.8854 147.596 56.9586 148.412C62.8479 149.362 68.6644 146.526 74.6141 146.138C76.9884 145.983 79.2419 146.157 81.0715 147.701L81.0709 147.7ZM21.4488 150.325C21.0157 149.993 20.6113 149.624 20.2418 149.22C20.1503 149.119 20.0562 149.013 20.0192 148.88C19.8997 148.461 20.3626 148.13 20.7534 147.947L22.8947 146.943L22.8973 146.959C22.9271 147.147 22.9518 147.334 22.9648 147.514C22.9771 147.687 22.9804 147.859 22.97 148.028C22.9596 148.198 22.9343 148.366 22.8901 148.53C22.8161 148.805 22.6908 149.057 22.5285 149.288C22.3688 149.517 22.1733 149.726 21.9571 149.919L21.9279 149.947C21.7773 150.08 21.6163 150.206 21.4481 150.326L21.4488 150.325ZM33.3358 140.726C33.6786 140.811 33.8474 141.361 33.7137 141.955C33.5799 142.549 33.1936 142.962 32.8508 142.877C32.5087 142.792 32.3399 142.241 32.4736 141.648C32.6074 141.053 32.9937 140.641 33.3358 140.726Z" fill="#0B3329"/>
</svg>
